<svg width="800" height="700" viewBox="0 0 800 700" fill="none" xmlns="http://www.w3.org/2000/svg">
  <rect width="800" height="700" rx="40" fill="#F5F0FF"/>
  <circle cx="600" cy="200" r="120" fill="#7C3AED" fill-opacity="0.15"/>
  <rect x="170" y="180" width="320" height="320" rx="32" fill="#FFFFFF"/>
  <rect x="220" y="240" width="180" height="140" rx="20" fill="#7C3AED" fill-opacity="0.12"/>
  <circle cx="310" cy="270" r="58" fill="#7C3AED"/>
  <rect x="250" y="330" width="120" height="22" rx="11" fill="#FFFFFF"/>
  <rect x="240" y="364" width="140" height="18" rx="9" fill="#E5E7EB"/>
  <rect x="470" y="260" width="130" height="140" rx="20" fill="#FFFFFF"/>
  <rect x="495" y="290" width="80" height="10" rx="5" fill="#D8B4FE"/>
  <rect x="495" y="312" width="60" height="10" rx="5" fill="#E9D5FF"/>
  <rect x="495" y="334" width="70" height="10" rx="5" fill="#E9D5FF"/>
  <path d="M520 430C520 404.595 540.595 384 566 384H580C605.405 384 626 404.595 626 430V470H520V430Z" fill="#7C3AED"/>
  <circle cx="573" cy="360" r="42" fill="#7C3AED"/>
</svg>
